<svg width="192" height="192" viewBox="0 0 32 32" fill="none" xmlns="http://www.w3.org/2000/svg">
    <path d="M19.4519 20.8389C19.9339 20.8389 20.235 20.3167 19.9935 19.8995L16.986 14.7048C16.8741 14.5116 16.6677 14.3926 16.4444 14.3926H10.4555C9.97451 14.3926 9.67332 14.9126 9.91267 15.3298L12.8928 20.5245C13.0043 20.719 13.2114 20.8389 13.4356 20.8389H19.4519Z" fill="#6BBDF8"/>
    <path d="M19.9961 22.053C20.2371 21.6355 19.9355 21.1137 19.4534 21.1143L13.4509 21.1214C13.2276 21.1217 13.0214 21.241 12.9097 21.4343L9.91525 26.6209C9.67476 27.0374 9.97451 27.5583 10.4555 27.5596L16.4443 27.5761C16.6685 27.5767 16.8759 27.4574 16.988 27.2632L19.9961 22.053Z" fill="#1D72AF"/>
    <path d="M9.61227 15.4692C9.37233 15.051 8.76944 15.0498 8.52785 15.4671L5.52137 20.6601C5.40908 20.8541 5.40908 21.0933 5.52137 21.2872L8.52785 26.4802C8.76944 26.8975 9.37233 26.8963 9.61227 26.4781L12.5914 21.2851C12.7021 21.0922 12.7021 20.8551 12.5914 20.6622L9.61227 15.4692Z" fill="#208DDB"/>
    <path d="M18.3644 0C17.9176 0 17.5046 0.238237 17.2809 0.625076L11.3321 10.9127C10.8496 11.7471 11.4518 12.7908 12.4156 12.7908H13.2222C13.669 12.7908 14.082 12.5526 14.3057 12.1658L20.2545 1.87815C20.737 1.04374 20.1349 0 19.171 0H18.3644ZM25.4127 0.712376C25.2049 0.277127 24.7655 0 24.2832 0H23.9303C23.4825 0 23.0689 0.239179 22.8455 0.627233L16.5403 11.5816C16.2307 12.1194 16.6189 12.7908 17.2395 12.7908V12.7908C17.5304 12.7908 17.7987 12.9474 17.9419 13.2006L18.1513 13.5712V13.5712C18.3622 13.9327 18.8855 13.9298 19.0924 13.5661L25.5418 2.22803C25.7443 1.87206 25.7599 1.43953 25.5834 1.06995L25.4127 0.712376ZM28.025 5.09953C27.5422 4.26564 26.3377 4.26716 25.857 5.10226L19.9334 15.3935C19.7121 15.7779 19.7109 16.2508 19.9301 16.6364L20.3296 17.3392C20.8074 18.1798 22.0172 18.1843 22.5012 17.3473L28.4422 7.07322C28.6664 6.6854 28.6663 6.20729 28.4418 5.81958L28.025 5.09953Z" fill="currentColor"/>
    <path d="M30.8094 9.93506C30.3242 9.10586 29.1244 9.10981 28.6447 9.94219L18.0376 28.3477C17.8142 28.7354 17.4007 28.9743 16.9532 28.9743H9.06997C8.62223 28.9743 8.2086 28.7352 7.98523 28.3471L4.05943 21.5271C3.83593 21.1389 3.837 20.6607 4.06223 20.2735L10.6353 8.97168C11.1205 8.13728 10.5186 7.09082 9.55332 7.09082H8.69566C8.24851 7.09082 7.83534 7.32936 7.61175 7.71659L0.361646 20.2732C0.137885 20.6607 0.138049 21.1382 0.362077 21.5256L6.1527 31.5385C6.3764 31.9254 6.78935 32.1636 7.23618 32.1636H18.7863C19.2333 32.1636 19.6463 31.9252 19.87 31.5382L31.2227 11.8941C31.4479 11.5045 31.4466 11.0241 31.2194 10.6358L30.8094 9.93506Z" fill="currentColor"/>
    </svg>
