<?xml version="1.0" encoding="utf-8"?>
<!-- Generator: Adobe Illustrator 27.7.0, SVG Export Plug-In . SVG Version: 6.00 Build 0)  -->
<svg version="1.1" id="Layer_1" xmlns="http://www.w3.org/2000/svg" xmlns:xlink="http://www.w3.org/1999/xlink" x="0px" y="0px"
	 viewBox="0 0 98 33" style="enable-background:new 0 0 98 33;" xml:space="preserve">
<style type="text/css">
	.st0{fill:#FFFFFF;}
	.st1{fill:url(#SVGID_1_);}
	.st2{fill:url(#SVGID_00000163774045634008565640000000086281585438707876_);}
	.st3{fill:none;stroke:#FFFFFF;stroke-width:0.5601;stroke-miterlimit:10;}
</style>
<g>
	<g>
		<path class="st0" d="M3.8,23.2V8.9h2.9v6l1.8,0l2.8-6h3L11,16l3.6,7.2h-3.1l-3-5.7l-1.8,0v5.6H3.8z"/>
		<path class="st0" d="M15.9,11V8.7h2.8V11H15.9z M15.9,23.2V12.7h2.8v10.5H15.9z"/>
		<path class="st0" d="M20.9,23.2V12.7h2.8v1.2c0.2-0.2,0.5-0.4,0.9-0.6c0.3-0.2,0.7-0.4,1.1-0.6c0.4-0.2,0.8-0.3,1.2-0.3v2.7
			c-0.4,0.1-0.7,0.1-1.1,0.3c-0.4,0.1-0.8,0.3-1.1,0.4c-0.4,0.2-0.7,0.3-0.9,0.4v6.9H20.9z"/>
		<path class="st0" d="M32.8,23.4c-1.2,0-2.1-0.2-2.8-0.6c-0.7-0.4-1.2-1-1.6-1.8c-0.3-0.8-0.5-1.9-0.5-3.2c0-1.2,0.2-2.3,0.5-3
			c0.3-0.8,0.9-1.4,1.6-1.7c0.7-0.4,1.7-0.6,2.8-0.6c1.2,0,2.1,0.2,2.8,0.6c0.7,0.4,1.2,1,1.6,1.7c0.3,0.8,0.5,1.8,0.5,3
			c0,1.3-0.2,2.3-0.5,3.2c-0.3,0.8-0.8,1.4-1.6,1.8C35,23.2,34,23.4,32.8,23.4z M32.8,21.1c0.6,0,1-0.1,1.3-0.3
			c0.3-0.2,0.5-0.6,0.6-1c0.1-0.5,0.2-1.1,0.2-1.9c0-0.8-0.1-1.4-0.2-1.8c-0.1-0.5-0.3-0.8-0.6-1c-0.3-0.2-0.7-0.3-1.2-0.3
			c-0.5,0-0.9,0.1-1.2,0.3c-0.3,0.2-0.5,0.5-0.6,1c-0.1,0.5-0.2,1.1-0.2,1.8c0,0.8,0.1,1.4,0.2,1.9s0.3,0.8,0.6,1
			C31.8,21,32.2,21.1,32.8,21.1z"/>
		<path class="st0" d="M43.8,23.4c-0.3,0-0.8,0-1.3,0c-0.5,0-1-0.1-1.5-0.1s-1-0.1-1.4-0.1V8.4h2.8V13c0.2-0.1,0.5-0.2,0.8-0.2
			c0.3-0.1,0.6-0.2,1-0.2s0.7-0.1,0.9-0.1c1,0,1.7,0.2,2.3,0.6c0.6,0.4,1,1,1.2,1.8s0.4,1.8,0.4,2.9c0,1.4-0.2,2.5-0.5,3.3
			c-0.3,0.8-0.9,1.4-1.6,1.8C46.2,23.2,45.1,23.4,43.8,23.4z M43.8,21c0.7,0,1.2-0.1,1.5-0.4c0.3-0.2,0.6-0.6,0.7-1.1
			c0.1-0.5,0.2-1.1,0.2-1.8c0-0.7-0.1-1.3-0.2-1.7c-0.1-0.4-0.3-0.8-0.6-1s-0.6-0.3-1.1-0.3c-0.2,0-0.5,0-0.7,0.1S43.2,15,43,15
			c-0.2,0.1-0.4,0.1-0.6,0.2V21c0.2,0,0.5,0,0.7,0.1C43.4,21,43.6,21,43.8,21z"/>
		<path class="st0" d="M55.4,23.4c-1.2,0-2.1-0.2-2.8-0.6c-0.7-0.4-1.2-1-1.6-1.8c-0.3-0.8-0.5-1.9-0.5-3.2c0-1.2,0.2-2.3,0.5-3
			c0.3-0.8,0.9-1.4,1.6-1.7c0.7-0.4,1.7-0.6,2.8-0.6c1.2,0,2.1,0.2,2.8,0.6c0.7,0.4,1.2,1,1.6,1.7c0.3,0.8,0.5,1.8,0.5,3
			c0,1.3-0.2,2.3-0.5,3.2c-0.3,0.8-0.8,1.4-1.6,1.8C57.6,23.2,56.6,23.4,55.4,23.4z M55.4,21.1c0.6,0,1-0.1,1.3-0.3
			c0.3-0.2,0.5-0.6,0.6-1c0.1-0.5,0.2-1.1,0.2-1.9c0-0.8-0.1-1.4-0.2-1.8c-0.1-0.5-0.3-0.8-0.6-1c-0.3-0.2-0.7-0.3-1.2-0.3
			c-0.5,0-0.9,0.1-1.2,0.3c-0.3,0.2-0.5,0.5-0.6,1c-0.1,0.5-0.2,1.1-0.2,1.8c0,0.8,0.1,1.4,0.2,1.9s0.3,0.8,0.6,1
			C54.4,21,54.8,21.1,55.4,21.1z"/>
		<path class="st0" d="M62.1,23.2v-3.1H65v3.1H62.1z"/>
	</g>
</g>
<linearGradient id="SVGID_1_" gradientUnits="userSpaceOnUse" x1="74.8256" y1="8.5851" x2="74.8256" y2="23.0681">
	<stop  offset="0" style="stop-color:#14D1CB"/>
	<stop  offset="1" style="stop-color:#00B0C8"/>
</linearGradient>
<path class="st1" d="M67.6,22l0-12.3c0-0.6,0.5-1.1,1.1-1.1l12.3,0c0.6,0,1.1,0.5,1.1,1.1l0,12.3c0,0.6-0.5,1.1-1.1,1.1l-12.3,0
	C68.1,23.2,67.6,22.7,67.6,22z"/>
<linearGradient id="SVGID_00000119798433025861607040000013117041870587157945_" gradientUnits="userSpaceOnUse" x1="93.2979" y1="16.8547" x2="93.2979" y2="22.9923">
	<stop  offset="0" style="stop-color:#F85C78"/>
	<stop  offset="1" style="stop-color:#DA3278"/>
</linearGradient>
<path style="fill:url(#SVGID_00000119798433025861607040000013117041870587157945_);" d="M90.2,22.7v-5.2c0-0.3,0.2-0.5,0.5-0.5
	l5.2,0c0.3,0,0.5,0.2,0.5,0.5l0,5.2c0,0.3-0.2,0.5-0.5,0.5l-5.2,0C90.4,23.2,90.2,22.9,90.2,22.7z"/>
<path class="st3" d="M90.3,20.1c0,0-3.9,0.6-4.1-3.1c-0.2-3.5-1.2-4.4-4.1-4"/>
<rect x="89.6" y="19.3" transform="matrix(-1 1.393263e-07 -1.393263e-07 -1 180.6075 40.131)" class="st0" width="1.5" height="1.5"/>
<rect x="81.3" y="12.1" transform="matrix(-1 1.393263e-07 -1.393263e-07 -1 164.1192 25.7334)" class="st0" width="1.5" height="1.5"/>
</svg>
